<svg version="1.1" viewBox="0.0 0.0 1587.0 1122.0" fill="none" stroke="none" stroke-linecap="square" stroke-miterlimit="10" xmlns:xlink="http://www.w3.org/1999/xlink" xmlns="http://www.w3.org/2000/svg"><clipPath id="p.0"><path d="m0 0l1587.0 0l0 1122.0l-1587.0 0l0 -1122.0z" clip-rule="nonzero"/></clipPath><g clip-path="url(#p.0)"><path fill="#ffffff" d="m0 0l1587.0 0l0 1122.0l-1587.0 0z" fill-rule="evenodd"/><path fill="#ffffff" d="m0 0l1587.0237 0l0 106.42519l-1587.0237 0z" fill-rule="evenodd"/><path fill="#000000" d="m1481.5308 946.7447l74.96057 0l0 73.543274l-74.96057 0z" fill-rule="evenodd"/><path fill="#d6ad60" d="m1406.5702 1020.28796l74.96057 0l0 73.543335l-74.96057 0z" fill-rule="evenodd"/><path fill="#000000" fill-opacity="0.0" d="m126.60074 288.47845l1334.3307 0l0 363.1181l-1334.3307 0z" fill-rule="evenodd"/><path fill="#161a1d" d="m166.61636 376.43845l-7.640625 0l0 -47.6875l-16.484375 0l0 -6.5625l40.5625 0l0 6.5625l-16.4375 0l0 47.6875zm31.21289 -40.890625l0 40.890625l-7.46875 0l0 -40.890625l7.46875 0zm-3.6875 -15.484375q1.78125 0 3.0625 1.046875q1.28125 1.03125 1.28125 3.375q0 2.34375 -1.28125 3.40625q-1.28125 1.046875 -3.0625 1.046875q-1.8125 0 -3.0625 -1.046875q-1.234375 -1.0625 -1.234375 -3.40625q0 -2.34375 1.234375 -3.375q1.25 -1.046875 3.0625 -1.046875zm23.90625 56.375l-7.5 0l0 -57.75l7.5 0l0 57.75zm20.1875 0l-7.5 0l0 -57.75l7.5 0l0 57.75zm46.570312 0.75q-7.5 0 -11.96875 -5.3125q-4.46875 -5.3125 -4.46875 -15.734375q0 -10.546875 4.546875 -15.9375q4.546875 -5.40625 12.078125 -5.40625q3.15625 0 5.53125 0.859375q2.375 0.84375 4.09375 2.265625q1.734375 1.40625 2.875 3.1875l0.453125 0q-0.1875 -1.15625 -0.375 -3.234375q-0.1875 -2.078125 -0.1875 -3.625l0 -15.5625l7.46875 0l0 57.75l-5.90625 0l-1.21875 -5.671875l-0.34375 0q-1.109375 1.78125 -2.84375 3.25q-1.71875 1.453125 -4.109375 2.3125q-2.390625 0.859375 -5.625 0.859375zm1.75 -6.09375q6.046875 0 8.546875 -3.484375q2.5 -3.5 2.546875 -10.359375l0 -1.15625q0 -7.296875 -2.40625 -11.21875q-2.390625 -3.921875 -8.765625 -3.921875q-5.203125 0 -7.84375 4.078125q-2.625 4.0625 -2.625 11.25q0 7.125 2.625 10.96875q2.640625 3.84375 7.921875 3.84375zm38.484375 -35.546875l0 40.890625l-7.46875 0l0 -40.890625l7.46875 0zm-3.6875 -15.484375q1.78125 0 3.0625 1.046875q1.28125 1.03125 1.28125 3.375q0 2.34375 -1.28125 3.40625q-1.28125 1.046875 -3.0625 1.046875q-1.8125 0 -3.0625 -1.046875q-1.234375 -1.0625 -1.234375 -3.40625q0 -2.34375 1.234375 -3.375q1.25 -1.046875 3.0625 -1.046875zm27.984375 74.640625q-8.203125 0 -12.609375 -3.015625q-4.390625 -3.0 -4.390625 -8.390625q0 -3.8125 2.40625 -6.46875q2.421875 -2.65625 6.765625 -3.578125q-1.625 -0.75 -2.796875 -2.28125q-1.171875 -1.546875 -1.171875 -3.46875q0 -2.265625 1.28125 -3.921875q1.28125 -1.65625 3.84375 -3.203125q-3.234375 -1.34375 -5.203125 -4.4375q-1.96875 -3.109375 -1.96875 -7.265625q0 -4.40625 1.875 -7.515625q1.875 -3.125 5.390625 -4.75q3.53125 -1.640625 8.578125 -1.640625q1.125 0 2.3125 0.09375q1.1875 0.09375 2.25 0.28125q1.078125 0.171875 1.75 0.359375l14.109375 0l0 4.421875l-7.28125 1.109375q1.078125 1.40625 1.75 3.34375q0.671875 1.921875 0.671875 4.234375q0 6.234375 -4.25 9.859375q-4.25 3.609375 -11.75 3.609375q-1.75 -0.046875 -3.53125 -0.296875q-1.59375 0.921875 -2.40625 2.015625q-0.8125 1.09375 -0.8125 2.515625q0 1.0625 0.71875 1.734375q0.71875 0.671875 2.09375 0.984375q1.375 0.3125 3.34375 0.3125l7.125 0q6.671875 0 10.234375 2.828125q3.5625 2.8125 3.5625 8.234375q0 6.875 -5.640625 10.578125q-5.640625 3.71875 -16.25 3.71875zm0.265625 -5.46875q4.78125 0 7.984375 -0.96875q3.21875 -0.953125 4.84375 -2.734375q1.640625 -1.78125 1.640625 -4.234375q0 -2.21875 -1.0625 -3.390625q-1.046875 -1.171875 -3.125 -1.578125q-2.078125 -0.40625 -5.125 -0.40625l-6.75 0q-2.609375 0 -4.546875 0.8125q-1.921875 0.8125 -3.0 2.34375q-1.0625 1.546875 -1.0625 3.8125q0 3.078125 2.640625 4.703125q2.65625 1.640625 7.5625 1.640625zm1.625 -32.25q4.125 0 6.15625 -2.15625q2.046875 -2.171875 2.046875 -6.21875q0 -4.34375 -2.078125 -6.53125q-2.078125 -2.1875 -6.15625 -2.1875q-3.96875 0 -6.078125 2.25q-2.09375 2.234375 -2.09375 6.53125q0 3.984375 2.109375 6.15625q2.125 2.15625 6.09375 2.15625zm74.93164 8.015625q0 3.984375 -1.953125 6.71875q-1.953125 2.71875 -5.671875 4.09375q-3.703125 1.375 -8.890625 1.375q-4.3125 0 -7.4375 -0.65625q-3.109375 -0.65625 -5.625 -1.875l0 -6.609375q2.703125 1.296875 6.265625 2.3125q3.5625 1.0 6.984375 1.0q4.78125 0 6.90625 -1.515625q2.140625 -1.53125 2.140625 -4.125q0 -1.53125 -0.859375 -2.6875q-0.84375 -1.171875 -2.984375 -2.34375q-2.125 -1.171875 -6.09375 -2.6875q-3.90625 -1.53125 -6.671875 -3.046875q-2.75 -1.53125 -4.203125 -3.671875q-1.453125 -2.15625 -1.453125 -5.578125q0 -5.296875 4.25 -8.09375q4.25 -2.8125 11.234375 -2.8125q3.703125 0 6.984375 0.75q3.296875 0.734375 6.296875 2.078125l-2.40625 5.75q-2.671875 -1.15625 -5.5 -1.90625q-2.8125 -0.765625 -5.75 -0.765625q-3.828125 0 -5.859375 1.234375q-2.015625 1.21875 -2.015625 3.359375q0 1.671875 0.953125 2.796875q0.953125 1.109375 3.171875 2.171875q2.234375 1.046875 6.015625 2.5q3.75 1.40625 6.46875 2.9375q2.734375 1.515625 4.21875 3.703125q1.484375 2.1875 1.484375 5.59375zm45.376953 -9.078125q0 5.046875 -1.3125 9.0q-1.3125 3.9375 -3.828125 6.671875q-2.5 2.734375 -6.03125 4.171875q-3.515625 1.421875 -7.96875 1.421875q-4.15625 0 -7.625 -1.421875q-3.46875 -1.4375 -6.0 -4.171875q-2.515625 -2.734375 -3.890625 -6.671875q-1.375 -3.953125 -1.375 -9.0q0 -6.71875 2.296875 -11.453125q2.296875 -4.734375 6.578125 -7.203125q4.296875 -2.46875 10.234375 -2.46875q5.640625 0 9.90625 2.484375q4.265625 2.484375 6.640625 7.203125q2.375 4.71875 2.375 11.4375zm-30.390625 0q0 4.703125 1.203125 8.109375q1.21875 3.390625 3.71875 5.21875q2.5 1.8125 6.46875 1.8125q3.90625 0 6.421875 -1.8125q2.53125 -1.828125 3.71875 -5.21875q1.1875 -3.40625 1.1875 -8.109375q0 -4.6875 -1.1875 -8.015625q-1.1875 -3.34375 -3.703125 -5.125q-2.5 -1.78125 -6.5 -1.78125q-5.875 0 -8.609375 3.921875q-2.71875 3.90625 -2.71875 11.0zm86.021454 -21.125q6.796875 0 10.265625 3.546875q3.46875 3.546875 3.46875 11.34375l0 26.75l-7.390625 0l0 -25.828125q0 -4.828125 -1.984375 -7.234375q-1.984375 -2.421875 -5.921875 -2.421875q-5.5625 0 -8.03125 3.359375q-2.46875 3.359375 -2.46875 9.859375l0 22.265625l-7.4218445 0l0 -25.828125q0 -3.234375 -0.890625 -5.359375q-0.890625 -2.140625 -2.640625 -3.21875q-1.734375 -1.078125 -4.40625 -1.078125q-3.828125 0 -6.109375 1.65625q-2.28125 1.65625 -3.296875 4.890625q-1.015625 3.21875 -1.015625 7.890625l0 21.046875l-7.46875 0l0 -40.890625l5.90625 0l1.078125 5.640625l0.40625 0q1.21875 -2.125 3.09375 -3.53125q1.875 -1.40625 4.171875 -2.125q2.3125 -0.734375 4.859375 -0.734375q4.609375 0 7.765625 1.671875q3.1562195 1.671875 4.6405945 5.078125l0.484375 0q1.953125 -3.4375 5.421875 -5.09375q3.484375 -1.65625 7.484375 -1.65625zm65.208984 6.5l-10.0625 0l0 35.140625l-7.453125 0l0 -35.140625l-6.953125 0l0 -3.609375l6.953125 -2.25l0 -2.828125q0 -5.15625 1.59375 -8.28125q1.59375 -3.140625 4.578125 -4.59375q2.984375 -1.453125 7.25 -1.453125q2.5625 0 4.6875 0.453125q2.140625 0.4375 3.703125 1.0l-1.921875 5.71875q-1.265625 -0.40625 -2.828125 -0.765625q-1.5625 -0.359375 -3.296875 -0.359375q-3.234375 0 -4.78125 2.078125q-1.53125 2.078125 -1.53125 6.28125l0 2.859375l10.0625 0l0 5.75zm22.845703 -6.453125q7.578125 0 11.328125 3.359375q3.75 3.34375 3.75 10.59375l0 27.640625l-5.34375 0l-1.453125 -5.9375l-0.296875 0q-1.703125 2.21875 -3.5625 3.703125q-1.859375 1.484375 -4.296875 2.234375q-2.421875 0.75 -5.90625 0.75q-3.71875 0 -6.609375 -1.34375q-2.890625 -1.34375 -4.546875 -4.03125q-1.640625 -2.6875 -1.640625 -6.84375q0 -6.234375 4.78125 -9.453125q4.78125 -3.234375 14.515625 -3.53125l7.046875 -0.296875l0 -2.296875q0 -4.796875 -2.140625 -6.765625q-2.125 -1.96875 -5.953125 -1.96875q-3.15625 0 -6.046875 0.921875q-2.890625 0.90625 -5.5625 2.171875l-2.375 -5.421875q2.890625 -1.484375 6.578125 -2.484375q3.703125 -1.0 7.734375 -1.0zm7.6875 21.734375l-5.71875 0.265625q-7.078125 0.265625 -9.953125 2.359375q-2.875 2.09375 -2.875 5.84375q0 3.265625 1.953125 4.796875q1.96875 1.515625 5.203125 1.515625q4.96875 0 8.171875 -2.796875q3.21875 -2.8125 3.21875 -8.3125l0 -3.671875zm-8.09375 -26.1875q-3.75 0 -6.109375 -2.1875q-2.34375 -2.203125 -2.34375 -6.0625q0 -3.78125 2.34375 -5.96875q2.359375 -2.1875 6.109375 -2.1875q3.640625 0 6.125 2.171875q2.484375 2.171875 2.484375 5.921875q0 3.890625 -2.46875 6.109375q-2.46875 2.203125 -6.140625 2.203125zm0 -4.015625q1.859375 0 3.046875 -1.125q1.1875 -1.140625 1.1875 -3.109375q0 -1.921875 -1.234375 -3.046875q-1.21875 -1.140625 -3.0 -1.140625q-1.78125 0 -3.0 1.140625q-1.21875 1.125 -1.21875 3.046875q0 1.96875 1.09375 3.109375q1.09375 1.125 3.125 1.125zm42.158203 44.75q1.59375 0 3.21875 -0.265625q1.640625 -0.28125 2.828125 -0.734375l0 5.71875q-1.25 0.5625 -3.359375 0.953125q-2.09375 0.390625 -4.28125 0.390625q-3.34375 0 -6.046875 -1.15625q-2.703125 -1.15625 -4.328125 -3.9375q-1.609375 -2.78125 -1.609375 -7.71875l0 -23.078125l-5.671875 0l0 -3.453125l5.9375 -2.75l2.625 -8.828125l4.609375 0l0 9.28125l11.828125 0l0 5.75l-11.828125 0l0 22.96875q0 3.453125 1.640625 5.15625q1.65625 1.703125 4.4375 1.703125zm28.574219 0q1.59375 0 3.21875 -0.265625q1.640625 -0.28125 2.828125 -0.734375l0 5.71875q-1.25 0.5625 -3.359375 0.953125q-2.09375 0.390625 -4.28125 0.390625q-3.34375 0 -6.046875 -1.15625q-2.703125 -1.15625 -4.328125 -3.9375q-1.609375 -2.78125 -1.609375 -7.71875l0 -23.078125l-5.671875 0l0 -3.453125l5.9375 -2.75l2.625 -8.828125l4.609375 0l0 9.28125l11.828125 0l0 5.75l-11.828125 0l0 22.96875q0 3.453125 1.640625 5.15625q1.65625 1.703125 4.4375 1.703125zm50.097656 -36.328125q5.34375 0 9.15625 2.28125q3.828125 2.28125 5.875 6.4375q2.046875 4.15625 2.046875 9.796875l0 4.234375l-27.765625 0q0.109375 6.5625 3.375 10.078125q3.265625 3.5 9.171875 3.5q3.890625 0 6.9375 -0.734375q3.046875 -0.75 6.3125 -2.1875l0 6.265625q-3.078125 1.40625 -6.1875 2.0625q-3.09375 0.65625 -7.390625 0.65625q-5.9375 0 -10.421875 -2.375q-4.46875 -2.390625 -6.953125 -7.046875q-2.484375 -4.65625 -2.484375 -11.484375q0 -6.75 2.265625 -11.546875q2.265625 -4.8125 6.375 -7.375q4.125 -2.5625 9.6875 -2.5625zm-0.03125 5.796875q-4.53125 0 -7.28125 2.953125q-2.734375 2.9375 -3.21875 8.4375l20.109375 0q-0.03125 -3.375 -1.078125 -5.9375q-1.03125 -2.5625 -3.140625 -4.0q-2.09375 -1.453125 -5.390625 -1.453125zm41.48242 30.53125q1.59375 0 3.21875 -0.265625q1.640625 -0.28125 2.828125 -0.734375l0 5.71875q-1.25 0.5625 -3.359375 0.953125q-2.09375 0.390625 -4.28125 0.390625q-3.34375 0 -6.046875 -1.15625q-2.703125 -1.15625 -4.328125 -3.9375q-1.609375 -2.78125 -1.609375 -7.71875l0 -23.078125l-5.671875 0l0 -3.453125l5.9375 -2.75l2.625 -8.828125l4.609375 0l0 9.28125l11.828125 0l0 5.75l-11.828125 0l0 22.96875q0 3.453125 1.640625 5.15625q1.65625 1.703125 4.4375 1.703125zm28.574219 0q1.59375 0 3.21875 -0.265625q1.640625 -0.28125 2.828125 -0.734375l0 5.71875q-1.25 0.5625 -3.359375 0.953125q-2.09375 0.390625 -4.28125 0.390625q-3.34375 0 -6.046875 -1.15625q-2.703125 -1.15625 -4.328125 -3.9375q-1.609375 -2.78125 -1.609375 -7.71875l0 -23.078125l-5.671875 0l0 -3.453125l5.9375 -2.75l2.625 -8.828125l4.609375 0l0 9.28125l11.828125 0l0 5.75l-11.828125 0l0 22.96875q0 3.453125 1.640625 5.15625q1.65625 1.703125 4.4375 1.703125z" fill-rule="nonzero"/><path fill="#1a1a1a" d="m856.1749 377.18845q-5.640625 0 -9.875 -2.265625q-4.21875 -2.265625 -6.546875 -6.921875q-2.3125 -4.65625 -2.3125 -11.78125q0 -7.421875 2.484375 -12.15625q2.484375 -4.734375 6.875 -7.0q4.40625 -2.265625 10.078125 -2.265625q3.34375 0 6.25 0.671875q2.921875 0.671875 4.890625 1.671875l-2.234375 6.046875q-2.078125 -0.8125 -4.46875 -1.4375q-2.390625 -0.640625 -4.546875 -0.640625q-3.921875 0 -6.515625 1.734375q-2.578125 1.71875 -3.875 5.0625q-1.296875 3.328125 -1.296875 8.234375q0 4.75 1.28125 8.03125q1.28125 3.28125 3.78125 5.0q2.515625 1.703125 6.265625 1.703125q3.296875 0 5.921875 -0.734375q2.640625 -0.75 4.875 -1.90625l0 6.5625q-2.15625 1.1875 -4.765625 1.78125q-2.59375 0.609375 -6.265625 0.609375zm36.666016 -42.390625q5.34375 0 9.15625 2.28125q3.828125 2.28125 5.875 6.4375q2.046875 4.15625 2.046875 9.796875l0 4.234375l-27.765625 0q0.109375 6.5625 3.375 10.078125q3.265625 3.5 9.171875 3.5q3.890625 0 6.9375 -0.734375q3.046875 -0.75 6.3125 -2.1875l0 6.265625q-3.078125 1.40625 -6.1875 2.0625q-3.09375 0.65625 -7.390625 0.65625q-5.9375 0 -10.421875 -2.375q-4.46875 -2.390625 -6.953125 -7.046875q-2.484375 -4.65625 -2.484375 -11.484375q0 -6.75 2.265625 -11.546875q2.265625 -4.8125 6.375 -7.375q4.125 -2.5625 9.6875 -2.5625zm-0.03125 5.796875q-4.53125 0 -7.28125 2.953125q-2.734375 2.9375 -3.21875 8.4375l20.109375 0q-0.03125 -3.375 -1.078125 -5.9375q-1.03125 -2.5625 -3.140625 -4.0q-2.09375 -1.453125 -5.390625 -1.453125zm46.904297 -5.796875q1.109375 0 2.40625 0.140625q1.296875 0.125 2.234375 0.3125l-0.78125 6.9375q-0.890625 -0.21875 -2.0625 -0.359375q-1.171875 -0.15625 -2.171875 -0.15625q-2.375 0 -4.53125 0.890625q-2.140625 0.890625 -3.78125 2.578125q-1.625 1.6875 -2.5625 4.125q-0.921875 2.421875 -0.921875 5.53125l0 21.640625l-7.5 0l0 -40.890625l6.015625 0l0.890625 7.375l0.328125 0q1.265625 -2.21875 3.0625 -4.078125q1.796875 -1.859375 4.15625 -2.953125q2.359375 -1.09375 5.21875 -1.09375zm26.492188 36.328125q1.59375 0 3.21875 -0.265625q1.640625 -0.28125 2.828125 -0.734375l0 5.71875q-1.25 0.5625 -3.359375 0.953125q-2.09375 0.390625 -4.28125 0.390625q-3.34375 0 -6.046875 -1.15625q-2.703125 -1.15625 -4.328125 -3.9375q-1.609375 -2.78125 -1.609375 -7.71875l0 -23.078125l-5.671875 0l0 -3.453125l5.9375 -2.75l2.625 -8.828125l4.609375 0l0 9.28125l11.828125 0l0 5.75l-11.828125 0l0 22.96875q0 3.453125 1.640625 5.15625q1.65625 1.703125 4.4375 1.703125zm21.792969 -35.578125l0 40.890625l-7.46875 0l0 -40.890625l7.46875 0zm-3.6875 -15.484375q1.78125 0 3.0625 1.046875q1.28125 1.03125 1.28125 3.375q0 2.34375 -1.28125 3.40625q-1.28125 1.046875 -3.0625 1.046875q-1.8125 0 -3.0625 -1.046875q-1.234375 -1.0625 -1.234375 -3.40625q0 -2.34375 1.234375 -3.375q1.25 -1.046875 3.0625 -1.046875zm35.75 21.234375l-10.0625 0l0 35.140625l-7.453125 0l0 -35.140625l-6.953125 0l0 -3.609375l6.953125 -2.25l0 -2.828125q0 -5.15625 1.59375 -8.28125q1.59375 -3.140625 4.578125 -4.59375q2.984375 -1.453125 7.25 -1.453125q2.5625 0 4.6875 0.453125q2.140625 0.4375 3.703125 1.0l-1.921875 5.71875q-1.265625 -0.40625 -2.828125 -0.765625q-1.5625 -0.359375 -3.296875 -0.359375q-3.234375 0 -4.78125 2.078125q-1.53125 2.078125 -1.53125 6.28125l0 2.859375l10.0625 0l0 5.75zm14.65625 -5.75l0 40.890625l-7.46875 0l0 -40.890625l7.46875 0zm-3.6875 -15.484375q1.78125 0 3.0625 1.046875q1.28125 1.03125 1.28125 3.375q0 2.34375 -1.28125 3.40625q-1.28125 1.046875 -3.0625 1.046875q-1.8125 0 -3.0625 -1.046875q-1.234375 -1.0625 -1.234375 -3.40625q0 -2.34375 1.234375 -3.375q1.25 -1.046875 3.0625 -1.046875zm23.830078 -1.375l0 28.953125q0 1.703125 -0.125 3.875q-0.125 2.171875 -0.25 3.984375l0.265625 0q0.859375 -1.109375 2.28125 -2.921875q1.4375 -1.828125 2.546875 -3.078125l13.0625 -13.953125l8.609375 0l-16.40625 17.546875l17.546875 23.34375l-8.828125 0l-13.765625 -18.671875l-4.9375 4.390625l0 14.28125l-7.421875 0l0 -57.75l7.421875 0zm49.98242 16.15625q7.578125 0 11.328125 3.359375q3.75 3.34375 3.75 10.59375l0 27.640625l-5.34375 0l-1.453125 -5.9375l-0.296875 0q-1.703125 2.21875 -3.5625 3.703125q-1.859375 1.484375 -4.296875 2.234375q-2.421875 0.75 -5.90625 0.75q-3.71875 0 -6.609375 -1.34375q-2.890625 -1.34375 -4.546875 -4.03125q-1.640625 -2.6875 -1.640625 -6.84375q0 -6.234375 4.78125 -9.453125q4.78125 -3.234375 14.515625 -3.53125l7.046875 -0.296875l0 -2.296875q0 -4.796875 -2.140625 -6.765625q-2.125 -1.96875 -5.953125 -1.96875q-3.15625 0 -6.046875 0.921875q-2.890625 0.90625 -5.5625 2.171875l-2.375 -5.421875q2.890625 -1.484375 6.578125 -2.484375q3.703125 -1.0 7.734375 -1.0zm7.6875 21.734375l-5.71875 0.265625q-7.078125 0.265625 -9.953125 2.359375q-2.875 2.09375 -2.875 5.84375q0 3.265625 1.953125 4.796875q1.96875 1.515625 5.203125 1.515625q4.96875 0 8.171875 -2.796875q3.21875 -2.8125 3.21875 -8.3125l0 -3.671875zm34.064453 14.546875q1.59375 0 3.21875 -0.265625q1.640625 -0.28125 2.828125 -0.734375l0 5.71875q-1.25 0.5625 -3.359375 0.953125q-2.09375 0.390625 -4.28125 0.390625q-3.34375 0 -6.046875 -1.15625q-2.703125 -1.15625 -4.328125 -3.9375q-1.609375 -2.78125 -1.609375 -7.71875l0 -23.078125l-5.671875 0l0 -3.453125l5.9375 -2.75l2.625 -8.828125l4.609375 0l0 9.28125l11.828125 0l0 5.75l-11.828125 0l0 22.96875q0 3.453125 1.640625 5.15625q1.65625 1.703125 4.4375 1.703125z" fill-rule="nonzero"/><path fill="#000000" fill-opacity="0.0" d="m126.63111 907.73804l757.95276 0l0 68.59839l-757.95276 0z" fill-rule="evenodd"/><path fill="#000000" d="m160.39673 952.17804l-3.0 0l-7.890625 -10.640625l-2.34375 2.09375l0 8.546875l-2.53125 0l0 -21.890625l2.53125 0l0 10.921875q0.859375 -0.96875 1.75 -1.9375q0.90625 -0.96875 1.796875 -1.953125l6.390625 -7.03125l2.96875 0l-8.703125 9.5l9.03125 12.390625zm16.770966 -8.234375q0 2.015625 -0.53125 3.609375q-0.515625 1.59375 -1.515625 2.6875q-0.984375 1.078125 -2.390625 1.65625q-1.390625 0.578125 -3.15625 0.578125q-1.640625 0 -3.015625 -0.578125q-1.359375 -0.578125 -2.359375 -1.65625q-1.0 -1.09375 -1.546875 -2.6875q-0.546875 -1.59375 -0.546875 -3.609375q0 -2.6875 0.90625 -4.578125q0.921875 -1.90625 2.625 -2.890625q1.703125 -1.0 4.046875 -1.0q2.25 0 3.921875 1.0q1.6875 1.0 2.625 2.90625q0.9375 1.890625 0.9375 4.5625zm-12.484375 0q0 1.984375 0.515625 3.4375q0.53125 1.4375 1.625 2.234375q1.09375 0.796875 2.8125 0.796875q1.703125 0 2.796875 -0.796875q1.109375 -0.796875 1.625 -2.234375q0.53125 -1.453125 0.53125 -3.4375q0 -1.953125 -0.53125 -3.375q-0.515625 -1.4375 -1.609375 -2.21875q-1.09375 -0.78125 -2.828125 -0.78125q-2.5625 0 -3.75 1.6875q-1.1875 1.6875 -1.1875 4.6875zm24.551025 -8.46875q2.921875 0 4.40625 1.4375q1.5 1.421875 1.5 4.578125l0 10.6875l-2.453125 0l0 -10.515625q0 -2.0625 -0.9375 -3.078125q-0.9375 -1.015625 -2.859375 -1.015625q-2.734375 0 -3.84375 1.546875q-1.09375 1.53125 -1.09375 4.46875l0 8.59375l-2.484375 0l0 -16.40625l2.0 0l0.375 2.359375l0.140625 0q0.515625 -0.859375 1.328125 -1.453125q0.8125 -0.59375 1.8125 -0.890625q1.0 -0.3125 2.109375 -0.3125zm16.332153 14.96875q0.609375 0 1.25 -0.109375q0.640625 -0.109375 1.046875 -0.25l0 1.921875q-0.421875 0.203125 -1.203125 0.328125q-0.765625 0.140625 -1.5 0.140625q-1.296875 0 -2.359375 -0.453125q-1.0625 -0.453125 -1.703125 -1.546875q-0.640625 -1.09375 -0.640625 -3.03125l0 -9.71875l-2.328125 0l0 -1.21875l2.34375 -0.96875l0.984375 -3.5625l1.5 0l0 3.796875l4.8125 0l0 1.953125l-4.8125 0l0 9.640625q0 1.546875 0.703125 2.3125q0.71875 0.765625 1.90625 0.765625zm11.755402 -14.9375q2.9375 0 4.359375 1.3125q1.421875 1.3125 1.421875 4.203125l0 11.15625l-1.8125 0l-0.46875 -2.421875l-0.125 0q-0.6875 0.890625 -1.4375 1.5q-0.75 0.609375 -1.734375 0.921875q-0.96875 0.296875 -2.390625 0.296875q-1.5 0 -2.671875 -0.515625q-1.15625 -0.53125 -1.828125 -1.59375q-0.65625 -1.0625 -0.65625 -2.6875q0 -2.453125 1.9375 -3.765625q1.953125 -1.328125 5.9375 -1.453125l2.828125 -0.109375l0 -1.015625q0 -2.125 -0.921875 -2.96875q-0.90625 -0.859375 -2.5625 -0.859375q-1.296875 0 -2.46875 0.375q-1.15625 0.375 -2.203125 0.890625l-0.765625 -1.890625q1.109375 -0.5625 2.546875 -0.96875q1.4375 -0.40625 3.015625 -0.40625zm3.328125 8.59375l-2.5 0.09375q-3.0625 0.125 -4.328125 1.015625q-1.25 0.875 -1.25 2.5q0 1.40625 0.84375 2.078125q0.859375 0.671875 2.265625 0.671875q2.1875 0 3.578125 -1.203125q1.390625 -1.21875 1.390625 -3.65625l0 -1.5zm10.050201 -15.21875l0 12.09375q0 0.609375 -0.046875 1.46875q-0.046875 0.859375 -0.078125 1.515625l0.109375 0q0.3125 -0.390625 0.90625 -1.15625q0.609375 -0.765625 1.03125 -1.21875l5.453125 -5.8125l2.921875 0l-6.609375 7.0l7.078125 9.40625l-2.984375 0l-5.796875 -7.765625l-1.984375 1.828125l0 5.9375l-2.46875 0l0 -23.296875l2.46875 0zm18.934631 21.5625q0.609375 0 1.25 -0.109375q0.640625 -0.109375 1.046875 -0.25l0 1.921875q-0.421875 0.203125 -1.203125 0.328125q-0.765625 0.140625 -1.5 0.140625q-1.296875 0 -2.359375 -0.453125q-1.0625 -0.453125 -1.703125 -1.546875q-0.640625 -1.09375 -0.640625 -3.03125l0 -9.71875l-2.328125 0l0 -1.21875l2.34375 -0.96875l0.984375 -3.5625l1.5 0l0 3.796875l4.8125 0l0 1.953125l-4.8125 0l0 9.640625q0 1.546875 0.703125 2.3125q0.71875 0.765625 1.90625 0.765625zm11.755402 -14.9375q2.9375 0 4.359375 1.3125q1.421875 1.3125 1.421875 4.203125l0 11.15625l-1.8125 0l-0.46875 -2.421875l-0.125 0q-0.6875 0.890625 -1.4375 1.5q-0.75 0.609375 -1.734375 0.921875q-0.96875 0.296875 -2.390625 0.296875q-1.5 0 -2.671875 -0.515625q-1.15625 -0.53125 -1.828125 -1.59375q-0.65625 -1.0625 -0.65625 -2.6875q0 -2.453125 1.9375 -3.765625q1.953125 -1.328125 5.9375 -1.453125l2.828125 -0.109375l0 -1.015625q0 -2.125 -0.921875 -2.96875q-0.90625 -0.859375 -2.5625 -0.859375q-1.296875 0 -2.46875 0.375q-1.15625 0.375 -2.203125 0.890625l-0.765625 -1.890625q1.109375 -0.5625 2.546875 -0.96875q1.4375 -0.40625 3.015625 -0.40625zm3.328125 8.59375l-2.5 0.09375q-3.0625 0.125 -4.328125 1.015625q-1.25 0.875 -1.25 2.5q0 1.40625 0.84375 2.078125q0.859375 0.671875 2.265625 0.671875q2.1875 0 3.578125 -1.203125q1.390625 -1.21875 1.390625 -3.65625l0 -1.5z" fill-rule="nonzero"/><path fill="#010000" fill-opacity="0.0" d="m277.63828 919.4112l215.73138 0l0 41.74817l-215.73138 0l0 -41.74817z" fill-rule="nonzero"/><path fill="#1c3678" d="m282.74765 935.7718l0 16.40625l-2.484375 0l0 -16.40625l2.484375 0zm-1.21875 -6.140625q0.609375 0 1.046875 0.40625q0.453125 0.390625 0.453125 1.234375q0 0.8125 -0.453125 1.21875q-0.4375 0.40625 -1.046875 0.40625q-0.640625 0 -1.078125 -0.40625q-0.421875 -0.40625 -0.421875 -1.21875q0 -0.84375 0.421875 -1.234375q0.4375 -0.40625 1.078125 -0.40625zm14.238922 5.84375q2.921875 0 4.40625 1.4375q1.5 1.421875 1.5 4.578125l0 10.6875l-2.453125 0l0 -10.515625q0 -2.0625 -0.9375 -3.078125q-0.9375 -1.015625 -2.859375 -1.015625q-2.734375 0 -3.84375 1.546875q-1.09375 1.53125 -1.09375 4.46875l0 8.59375l-2.484375 0l0 -16.40625l2.0 0l0.375 2.359375l0.140625 0q0.515625 -0.859375 1.328125 -1.453125q0.8125 -0.59375 1.8125 -0.890625q1.0 -0.3125 2.109375 -0.3125zm18.332153 2.25l-4.078125 0l0 14.453125l-2.484375 0l0 -14.453125l-2.90625 0l0 -1.203125l2.90625 -0.828125l0 -1.09375q0 -2.0625 0.609375 -3.359375q0.609375 -1.296875 1.78125 -1.90625q1.171875 -0.609375 2.84375 -0.609375q0.9375 0 1.71875 0.171875q0.796875 0.15625 1.390625 0.359375l-0.640625 1.96875q-0.515625 -0.171875 -1.15625 -0.3125q-0.625 -0.140625 -1.28125 -0.140625q-1.421875 0 -2.109375 0.921875q-0.671875 0.921875 -0.671875 2.875l0 1.203125l4.078125 0l0 1.953125zm17.157288 6.21875q0 2.015625 -0.53125 3.609375q-0.515625 1.59375 -1.515625 2.6875q-0.984375 1.078125 -2.390625 1.65625q-1.390625 0.578125 -3.15625 0.578125q-1.640625 0 -3.015625 -0.578125q-1.359375 -0.578125 -2.359375 -1.65625q-1.0 -1.09375 -1.546875 -2.6875q-0.546875 -1.59375 -0.546875 -3.609375q0 -2.6875 0.90625 -4.578125q0.921875 -1.90625 2.625 -2.890625q1.703125 -1.0 4.046875 -1.0q2.25 0 3.921875 1.0q1.6875 1.0 2.625 2.90625q0.9375 1.890625 0.9375 4.5625zm-12.484375 0q0 1.984375 0.515625 3.4375q0.53125 1.4375 1.625 2.234375q1.09375 0.796875 2.8125 0.796875q1.703125 0 2.796875 -0.796875q1.109375 -0.796875 1.625 -2.234375q0.53125 -1.453125 0.53125 -3.4375q0 -1.953125 -0.53125 -3.375q-0.515625 -1.4375 -1.609375 -2.21875q-1.09375 -0.78125 -2.828125 -0.78125q-2.5625 0 -3.75 1.6875q-1.1875 1.6875 -1.1875 4.6875zm39.894775 -2.6875q0 1.421875 -0.328125 2.78125q-0.3125 1.34375 -0.984375 2.4375q-0.65625 1.078125 -1.640625 1.71875q-0.96875 0.640625 -2.296875 0.640625q-1.40625 0 -2.234375 -0.796875q-0.8125 -0.8125 -0.96875 -1.921875l-0.140625 0q-0.5625 1.1875 -1.671875 1.953125q-1.09375 0.765625 -2.703125 0.765625q-2.328125 0 -3.59375 -1.546875q-1.265625 -1.546875 -1.265625 -4.125q0 -2.0 0.796875 -3.546875q0.796875 -1.546875 2.25 -2.4375q1.46875 -0.890625 3.46875 -0.890625q1.328125 0 2.578125 0.21875q1.265625 0.21875 2.015625 0.5l-0.296875 6.03125q-0.015625 0.546875 -0.03125 0.84375q-0.015625 0.28125 -0.015625 0.453125q0 1.609375 0.5625 2.171875q0.578125 0.5625 1.40625 0.5625q1.0 0 1.671875 -0.78125q0.6875 -0.78125 1.046875 -2.109375q0.359375 -1.328125 0.359375 -2.9375q0 -2.859375 -1.15625 -4.875q-1.140625 -2.03125 -3.171875 -3.09375q-2.03125 -1.0625 -4.65625 -1.0625q-2.625 0 -4.65625 0.828125q-2.03125 0.8125 -3.4375 2.328125q-1.390625 1.5 -2.109375 3.5625q-0.71875 2.0625 -0.71875 4.5625q0 3.0625 1.078125 5.203125q1.09375 2.140625 3.1875 3.265625q2.109375 1.109375 5.140625 1.109375q1.828125 0 3.515625 -0.40625q1.6875 -0.40625 3.03125 -0.921875l0 1.953125q-1.328125 0.546875 -2.96875 0.890625q-1.625 0.359375 -3.578125 0.359375q-3.609375 0 -6.171875 -1.359375q-2.5625 -1.34375 -3.921875 -3.890625q-1.359375 -2.546875 -1.359375 -6.109375q0 -2.890625 0.890625 -5.3125q0.890625 -2.421875 2.578125 -4.203125q1.6875 -1.78125 4.078125 -2.765625q2.40625 -0.984375 5.421875 -0.984375q3.21875 0 5.6875 1.328125q2.484375 1.328125 3.890625 3.78125q1.421875 2.4375 1.421875 5.828125zm-15.59375 1.96875q0 2.0 0.78125 2.921875q0.796875 0.921875 2.203125 0.921875q1.734375 0 2.546875 -1.296875q0.828125 -1.296875 0.9375 -3.4375l0.1875 -3.90625q-0.4375 -0.140625 -1.0625 -0.234375q-0.609375 -0.09375 -1.296875 -0.09375q-1.53125 0 -2.484375 0.734375q-0.953125 0.71875 -1.390625 1.890625q-0.421875 1.171875 -0.421875 2.5zm22.4516 -14.34375l0 5.828125q0 1.0 -0.0625 1.953125q-0.046875 0.9375 -0.078125 1.453125l0.140625 0q0.671875 -1.09375 1.9375 -1.859375q1.28125 -0.765625 3.25 -0.765625q3.078125 0 4.90625 2.140625q1.84375 2.125 1.84375 6.328125q0 2.765625 -0.84375 4.671875q-0.828125 1.90625 -2.359375 2.875q-1.53125 0.96875 -3.609375 0.96875q-1.9375 0 -3.1875 -0.71875q-1.25 -0.734375 -1.921875 -1.78125l-0.203125 0l-0.5 2.203125l-1.796875 0l0 -23.296875l2.484375 0zm4.78125 8.6875q-1.78125 0 -2.828125 0.703125q-1.046875 0.6875 -1.5 2.09375q-0.453125 1.390625 -0.453125 3.53125l0 0.140625q0 3.09375 1.03125 4.734375q1.03125 1.640625 3.75 1.640625q2.296875 0 3.4375 -1.671875q1.140625 -1.6875 1.140625 -4.796875q0 -3.171875 -1.125 -4.765625q-1.125 -1.609375 -3.453125 -1.609375zm13.990356 14.609375l-2.4999695 0l0 -23.296875l2.4999695 0l0 23.296875zm7.723297 -16.40625l0 16.40625l-2.484375 0l0 -16.40625l2.484375 0zm-1.21875 -6.140625q0.609375 0 1.046875 0.40625q0.453125 0.390625 0.453125 1.234375q0 0.8125 -0.453125 1.21875q-0.4375 0.40625 -1.046875 0.40625q-0.640625 0 -1.078125 -0.40625q-0.421875 -0.40625 -0.421875 -1.21875q0 -0.84375 0.421875 -1.234375q0.4375 -0.40625 1.078125 -0.40625zm10.082672 22.546875l-6.234375 -16.40625l2.671875 0l3.59375 9.921875q0.375 1.015625 0.765625 2.25q0.390625 1.21875 0.546875 1.96875l0.09375 0q0.1875 -0.75 0.609375 -1.984375q0.421875 -1.234375 0.765625 -2.234375l3.609375 -9.921875l2.65625 0l-6.234375 16.40625l-2.84375 0zm17.828766 -16.671875q2.9375 0 4.359375 1.3125q1.421875 1.3125 1.421875 4.203125l0 11.15625l-1.8125 0l-0.46875 -2.421875l-0.125 0q-0.6875 0.890625 -1.4375 1.5q-0.75 0.609375 -1.734375 0.921875q-0.96875 0.296875 -2.390625 0.296875q-1.5 0 -2.671875 -0.515625q-1.15625 -0.53125 -1.828125 -1.59375q-0.65625 -1.0625 -0.65625 -2.6875q0 -2.453125 1.9375 -3.765625q1.953125 -1.328125 5.9375 -1.453125l2.828125 -0.109375l0 -1.015625q0 -2.125 -0.921875 -2.96875q-0.90625 -0.859375 -2.5625 -0.859375q-1.296875 0 -2.46875 0.375q-1.15625 0.375 -2.203125 0.890625l-0.765625 -1.890625q1.109375 -0.5625 2.546875 -0.96875q1.4375 -0.40625 3.015625 -0.40625zm3.328125 8.59375l-2.5 0.09375q-3.0625 0.125 -4.328125 1.015625q-1.25 0.875 -1.25 2.5q0 1.40625 0.84375 2.078125q0.859375 0.671875 2.265625 0.671875q2.1875 0 3.578125 -1.203125q1.390625 -1.21875 1.390625 -3.65625l0 -1.5zm10.081451 8.078125l-2.5 0l0 -23.296875l2.5 0l0 23.296875zm11.067017 0.296875q-3.109375 0 -4.9375 -2.125q-1.8125 -2.125 -1.8125 -6.3125q0 -4.234375 1.859375 -6.390625q1.859375 -2.171875 4.9375 -2.171875q1.296875 0 2.265625 0.34375q0.984375 0.34375 1.6875 0.921875q0.703125 0.578125 1.1875 1.3125l0.171875 0q-0.0625 -0.46875 -0.125 -1.28125q-0.046875 -0.8125 -0.046875 -1.3125l0 -6.578125l2.484375 0l0 23.296875l-2.015625 0l-0.375 -2.328125l-0.09375 0q-0.46875 0.71875 -1.1875 1.328125q-0.703125 0.59375 -1.6875 0.953125q-0.96875 0.34375 -2.3125 0.34375zm0.390625 -2.0625q2.640625 0 3.734375 -1.5q1.09375 -1.5 1.09375 -4.4375l0 -0.453125q0 -3.125 -1.046875 -4.796875q-1.046875 -1.6875 -3.78125 -1.6875q-2.28125 0 -3.421875 1.765625q-1.140625 1.75 -1.140625 4.796875q0 3.015625 1.125 4.671875q1.140625 1.640625 3.4375 1.640625zm12.162262 0.203125q0 -1.046875 0.5 -1.484375q0.515625 -0.4375 1.25 -0.4375q0.765625 0 1.28125 0.4375q0.53125 0.4375 0.53125 1.484375q0 1.03125 -0.53125 1.515625q-0.515625 0.46875 -1.28125 0.46875q-0.734375 0 -1.25 -0.46875q-0.5 -0.484375 -0.5 -1.515625zm19.037628 -2.921875q0 1.5625 -0.796875 2.640625q-0.78125 1.0625 -2.25 1.609375q-1.453125 0.53125 -3.46875 0.53125q-1.71875 0 -2.984375 -0.265625q-1.25 -0.265625 -2.1875 -0.765625l0 -2.296875q1.0 0.5 2.390625 0.90625q1.390625 0.40625 2.84375 0.40625q2.125 0 3.078125 -0.6875q0.96875 -0.6875 0.96875 -1.875q0 -0.671875 -0.390625 -1.1875q-0.375 -0.515625 -1.28125 -1.0q-0.890625 -0.484375 -2.484375 -1.078125q-1.5625 -0.59375 -2.71875 -1.1875q-1.140625 -0.59375 -1.765625 -1.4375q-0.609375 -0.859375 -0.609375 -2.21875q0 -2.078125 1.671875 -3.1875q1.6875 -1.125 4.421875 -1.125q1.484375 0 2.78125 0.296875q1.296875 0.28125 2.421875 0.78125l-0.84375 1.984375q-1.015625 -0.4375 -2.171875 -0.734375q-1.140625 -0.296875 -2.34375 -0.296875q-1.71875 0 -2.640625 0.578125q-0.921875 0.5625 -0.921875 1.546875q0 0.765625 0.421875 1.265625q0.4375 0.484375 1.375 0.921875q0.9375 0.4375 2.484375 1.015625q1.546875 0.578125 2.65625 1.1875q1.125 0.59375 1.734375 1.453125q0.609375 0.859375 0.609375 2.21875zm10.312744 -12.21875q2.09375 0 3.59375 0.9375q1.5 0.921875 2.28125 2.59375q0.796875 1.65625 0.796875 3.890625l0 1.546875l-11.328125 0q0.046875 2.890625 1.4375 4.40625q1.390625 1.5 3.921875 1.5q1.5625 0 2.75 -0.28125q1.203125 -0.28125 2.484375 -0.84375l0 2.1875q-1.234375 0.5625 -2.453125 0.8125q-1.21875 0.25 -2.890625 0.25q-2.359375 0 -4.125 -0.953125q-1.75 -0.96875 -2.734375 -2.84375q-0.96875 -1.875 -0.96875 -4.578125q0 -2.65625 0.890625 -4.59375q0.890625 -1.9375 2.515625 -2.984375q1.625 -1.046875 3.828125 -1.046875zm-0.03125 2.03125q-1.984375 0 -3.171875 1.3125q-1.1875 1.296875 -1.40625 3.625l8.6875 0q-0.015625 -1.46875 -0.46875 -2.578125q-0.4375 -1.109375 -1.34375 -1.734375q-0.890625 -0.625 -2.296875 -0.625z" fill-rule="nonzero"/><path fill="#000000" d="m507.56747 952.17804l-6.234375 -16.40625l2.671875 0l3.59375 9.921875q0.375 1.015625 0.765625 2.25q0.390625 1.21875 0.546875 1.96875l0.09375 0q0.1875 -0.75 0.609375 -1.984375q0.421875 -1.234375 0.765625 -2.234375l3.6094055 -9.921875l2.65625 0l-6.2344055 16.40625l-2.84375 0zm14.188141 -16.40625l0 16.40625l-2.484375 0l0 -16.40625l2.484375 0zm-1.21875 -6.140625q0.609375 0 1.046875 0.40625q0.453125 0.390625 0.453125 1.234375q0 0.8125 -0.453125 1.21875q-0.4375 0.40625 -1.046875 0.40625q-0.640625 0 -1.078125 -0.40625q-0.421875 -0.40625 -0.421875 -1.21875q0 -0.84375 0.421875 -1.234375q0.4375 -0.40625 1.078125 -0.40625zm12.301453 22.84375q-3.109375 0 -4.9375 -2.125q-1.8125 -2.125 -1.8125 -6.3125q0 -4.234375 1.859375 -6.390625q1.859375 -2.171875 4.9375 -2.171875q1.296875 0 2.265625 0.34375q0.984375 0.34375 1.6875 0.921875q0.703125 0.578125 1.1875 1.3125l0.171875 0q-0.0625 -0.46875 -0.125 -1.28125q-0.046875 -0.8125 -0.046875 -1.3125l0 -6.578125l2.484375 0l0 23.296875l-2.015625 0l-0.375 -2.328125l-0.09375 0q-0.46875 0.71875 -1.1875 1.328125q-0.703125 0.59375 -1.6875 0.953125q-0.96875 0.34375 -2.3125 0.34375zm0.390625 -2.0625q2.640625 0 3.734375 -1.5q1.09375 -1.5 1.09375 -4.4375l0 -0.453125q0 -3.125 -1.046875 -4.796875q-1.046875 -1.6875 -3.78125 -1.6875q-2.28125 0 -3.421875 1.765625q-1.140625 1.75 -1.140625 4.796875q0 3.015625 1.125 4.671875q1.140625 1.640625 3.4375 1.640625zm27.797546 -12.6875l-4.078125 0l0 14.453125l-2.484375 0l0 -14.453125l-2.90625 0l0 -1.203125l2.90625 -0.828125l0 -1.09375q0 -2.0625 0.609375 -3.359375q0.609375 -1.296875 1.78125 -1.90625q1.171875 -0.609375 2.84375 -0.609375q0.9375 0 1.71875 0.171875q0.796875 0.15625 1.390625 0.359375l-0.640625 1.96875q-0.515625 -0.171875 -1.15625 -0.3125q-0.625 -0.140625 -1.28125 -0.140625q-1.421875 0 -2.109375 0.921875q-0.671875 0.921875 -0.671875 2.875l0 1.203125l4.078125 0l0 1.953125zm10.469788 -2.25q0.484375 0 1.015625 0.0625q0.546875 0.046875 0.96875 0.125l-0.3125 2.3125q-0.40625 -0.109375 -0.90625 -0.171875q-0.484375 -0.0625 -0.921875 -0.0625q-0.984375 0 -1.859375 0.40625q-0.875 0.390625 -1.53125 1.140625q-0.65625 0.734375 -1.03125 1.78125q-0.375 1.03125 -0.375 2.3125l0 8.796875l-2.5 0l0 -16.40625l2.0625 0l0.265625 3.03125l0.109375 0q0.5 -0.921875 1.21875 -1.671875q0.71875 -0.765625 1.671875 -1.203125q0.953125 -0.453125 2.125 -0.453125zm11.200806 0.03125q2.9375 0 4.359375 1.3125q1.421875 1.3125 1.421875 4.203125l0 11.15625l-1.8125 0l-0.46875 -2.421875l-0.125 0q-0.6875 0.890625 -1.4375 1.5q-0.75 0.609375 -1.734375 0.921875q-0.96875 0.296875 -2.390625 0.296875q-1.5 0 -2.671875 -0.515625q-1.15625 -0.53125 -1.828125 -1.59375q-0.65625 -1.0625 -0.65625 -2.6875q0 -2.453125 1.9375 -3.765625q1.953125 -1.328125 5.9375 -1.453125l2.828125 -0.109375l0 -1.015625q0 -2.125 -0.921875 -2.96875q-0.90625 -0.859375 -2.5625 -0.859375q-1.296875 0 -2.46875 0.375q-1.15625 0.375 -2.203125 0.890625l-0.765625 -1.890625q1.109375 -0.5625 2.546875 -0.96875q1.4375 -0.40625 3.015625 -0.40625zm3.328125 8.59375l-2.5 0.09375q-3.0625 0.125 -4.328125 1.015625q-1.25 0.875 -1.25 2.5q0 1.40625 0.84375 2.078125q0.859375 0.671875 2.265625 0.671875q2.1875 0 3.578125 -1.203125q1.390625 -1.21875 1.390625 -3.65625l0 -1.5zm-3.5625 -10.515625q-1.453125 0 -2.375 -0.84375q-0.921875 -0.859375 -0.921875 -2.390625q0 -1.5 0.90625 -2.34375q0.921875 -0.859375 2.390625 -0.859375q1.421875 0 2.390625 0.859375q0.984375 0.84375 0.984375 2.3125q0 1.546875 -0.96875 2.40625q-0.953125 0.859375 -2.40625 0.859375zm0 -1.4375q0.796875 0 1.296875 -0.484375q0.5 -0.484375 0.5 -1.3125q0 -0.8125 -0.515625 -1.296875q-0.515625 -0.484375 -1.28125 -0.484375q-0.75 0 -1.265625 0.484375q-0.515625 0.484375 -0.515625 1.296875q0 0.828125 0.46875 1.3125q0.46875 0.484375 1.3125 0.484375zm15.722107 27.390625q-3.234375 0 -4.984375 -1.203125q-1.75 -1.203125 -1.75 -3.375q0 -1.53125 0.96875 -2.625q0.984375 -1.09375 2.71875 -1.453125q-0.640625 -0.3125 -1.09375 -0.90625q-0.453125 -0.59375 -0.453125 -1.375q0 -0.890625 0.5 -1.578125q0.5 -0.6875 1.53125 -1.3125q-1.28125 -0.515625 -2.09375 -1.765625q-0.796875 -1.25 -0.796875 -2.921875q0 -1.765625 0.734375 -3.015625q0.734375 -1.25 2.125 -1.90625q1.390625 -0.65625 3.375 -0.65625q0.421875 0 0.859375 0.046875q0.453125 0.03125 0.859375 0.09375q0.40625 0.0625 0.703125 0.15625l5.625 0l0 1.609375l-3.015625 0.375q0.4375 0.578125 0.734375 1.40625q0.3125 0.8125 0.3125 1.8125q0 2.46875 -1.671875 3.921875q-1.65625 1.4375 -4.5625 1.4375q-0.6875 0 -1.40625 -0.125q-0.734375 0.40625 -1.125 0.90625q-0.375 0.484375 -0.375 1.125q0 0.484375 0.296875 0.765625q0.296875 0.28125 0.84375 0.40625q0.546875 0.125 1.328125 0.125l2.890625 0q2.6875 0 4.109375 1.125q1.4375 1.125 1.4375 3.28125q0 2.71875 -2.21875 4.171875q-2.21875 1.453125 -6.40625 1.453125zm0.078125 -1.9375q2.03125 0 3.359375 -0.421875q1.34375 -0.40625 2.015625 -1.1875q0.671875 -0.765625 0.671875 -1.828125q0 -0.984375 -0.453125 -1.484375q-0.453125 -0.5 -1.328125 -0.671875q-0.859375 -0.171875 -2.109375 -0.171875l-2.84375 0q-1.109375 0 -1.9375 0.34375q-0.828125 0.34375 -1.265625 1.015625q-0.4375 0.671875 -0.4375 1.671875q0 1.34375 1.109375 2.03125q1.125 0.703125 3.21875 0.703125zm0.640625 -13.109375q1.78125 0 2.671875 -0.890625q0.90625 -0.90625 0.90625 -2.640625q0 -1.828125 -0.921875 -2.75q-0.90625 -0.921875 -2.6875 -0.921875q-1.703125 0 -2.625 0.953125q-0.921875 0.9375 -0.921875 2.765625q0 1.6875 0.921875 2.59375q0.9375 0.890625 2.65625 0.890625zm25.489136 -0.546875q0 2.015625 -0.53125 3.609375q-0.515625 1.59375 -1.515625 2.6875q-0.984375 1.078125 -2.390625 1.65625q-1.390625 0.578125 -3.15625 0.578125q-1.640625 0 -3.015625 -0.578125q-1.359375 -0.578125 -2.359375 -1.65625q-1.0 -1.09375 -1.546875 -2.6875q-0.546875 -1.59375 -0.546875 -3.609375q0 -2.6875 0.90625 -4.578125q0.921875 -1.90625 2.625 -2.890625q1.703125 -1.0 4.046875 -1.0q2.25 0 3.921875 1.0q1.6875 1.0 2.625 2.90625q0.9375 1.890625 0.9375 4.5625zm-12.484375 0q0 1.984375 0.515625 3.4375q0.53125 1.4375 1.625 2.234375q1.09375 0.796875 2.8125 0.796875q1.703125 0 2.796875 -0.796875q1.109375 -0.796875 1.625 -2.234375q0.53125 -1.453125 0.53125 -3.4375q0 -1.953125 -0.53125 -3.375q-0.515625 -1.4375 -1.609375 -2.21875q-1.09375 -0.78125 -2.828125 -0.78125q-2.5625 0 -3.75 1.6875q-1.1875 1.6875 -1.1875 4.6875zm24.238525 -8.46875q0.484375 0 1.015625 0.0625q0.546875 0.046875 0.96875 0.125l-0.3125 2.3125q-0.40625 -0.109375 -0.90625 -0.171875q-0.484375 -0.0625 -0.921875 -0.0625q-0.984375 0 -1.859375 0.40625q-0.875 0.390625 -1.53125 1.140625q-0.65625 0.734375 -1.03125 1.78125q-0.375 1.03125 -0.375 2.3125l0 8.796875l-2.5 0l0 -16.40625l2.0625 0l0.265625 3.03125l0.109375 0q0.5 -0.921875 1.21875 -1.671875q0.71875 -0.765625 1.671875 -1.203125q0.953125 -0.453125 2.125 -0.453125z" fill-rule="nonzero"/><path fill="#1c3678" d="m277.63828 954.1714l215.73138 0l0 2.7599487l-215.73138 0l0 -2.7599487z" fill-rule="nonzero"/><a xlink:href="mailto:info@blivald.se" target="_blank" rel="noreferrer"><path fill="transparent" fill-opacity="0" d="m277.63828 922.73804l215.73138 0l0 36.799988l-215.73138 0l0 -36.799988z" fill-rule="nonzero"/></a></g></svg>