<!-- Created with qrencode 4.1.1 (https://fukuchi.org/works/qrencode/index.html) -->
<svg width="2.65cm" height="2.65cm" viewBox="0 0 25 25" preserveAspectRatio="none" version="1.1" xmlns="http://www.w3.org/2000/svg">
	<g id="QRcode">
		<rect x="0" y="0" width="25" height="25" fill="#fcfcfc"/>
		<path style="stroke:#000000" transform="translate(0,0.5)" d="M0,0h1M1,0h1M2,0h1M3,0h1M4,0h1M5,0h1M6,0h1M8,0h1M13,0h1M14,0h1M15,0h1M16,0h1M18,0h1M19,0h1M20,0h1M21,0h1M22,0h1M23,0h1M24,0h1M0,1h1M6,1h1M8,1h1M11,1h1M12,1h1M13,1h1M16,1h1M18,1h1M24,1h1M0,2h1M2,2h1M3,2h1M4,2h1M6,2h1M8,2h1M9,2h1M12,2h1M14,2h1M16,2h1M18,2h1M20,2h1M21,2h1M22,2h1M24,2h1M0,3h1M2,3h1M3,3h1M4,3h1M6,3h1M8,3h1M9,3h1M10,3h1M12,3h1M15,3h1M18,3h1M20,3h1M21,3h1M22,3h1M24,3h1M0,4h1M2,4h1M3,4h1M4,4h1M6,4h1M9,4h1M10,4h1M12,4h1M14,4h1M15,4h1M16,4h1M18,4h1M20,4h1M21,4h1M22,4h1M24,4h1M0,5h1M6,5h1M8,5h1M9,5h1M10,5h1M18,5h1M24,5h1M0,6h1M1,6h1M2,6h1M3,6h1M4,6h1M5,6h1M6,6h1M8,6h1M10,6h1M12,6h1M14,6h1M16,6h1M18,6h1M19,6h1M20,6h1M21,6h1M22,6h1M23,6h1M24,6h1M10,7h1M11,7h1M13,7h1M0,8h1M1,8h1M4,8h1M5,8h1M6,8h1M10,8h1M12,8h1M13,8h1M15,8h1M19,8h1M21,8h1M22,8h1M23,8h1M24,8h1M0,9h1M5,9h1M13,9h1M14,9h1M15,9h1M20,9h1M21,9h1M23,9h1M2,10h1M4,10h1M6,10h1M9,10h1M10,10h1M15,10h1M16,10h1M18,10h1M20,10h1M21,10h1M22,10h1M4,11h1M8,11h1M9,11h1M12,11h1M14,11h1M15,11h1M17,11h1M22,11h1M23,11h1M0,12h1M1,12h1M4,12h1M5,12h1M6,12h1M7,12h1M8,12h1M11,12h1M13,12h1M14,12h1M17,12h1M18,12h1M19,12h1M21,12h1M22,12h1M23,12h1M24,12h1M0,13h1M1,13h1M2,13h1M4,13h1M5,13h1M8,13h1M9,13h1M10,13h1M12,13h1M15,13h1M16,13h1M20,13h1M23,13h1M2,14h1M3,14h1M4,14h1M5,14h1M6,14h1M9,14h1M10,14h1M11,14h1M12,14h1M13,14h1M14,14h1M15,14h1M16,14h1M17,14h1M18,14h1M19,14h1M20,14h1M21,14h1M22,14h1M3,15h1M5,15h1M7,15h1M8,15h1M11,15h1M13,15h1M15,15h1M19,15h1M20,15h1M22,15h1M23,15h1M0,16h1M1,16h1M3,16h1M4,16h1M5,16h1M6,16h1M9,16h1M12,16h1M13,16h1M15,16h1M16,16h1M17,16h1M18,16h1M19,16h1M20,16h1M21,16h1M22,16h1M8,17h1M9,17h1M10,17h1M13,17h1M14,17h1M16,17h1M20,17h1M0,18h1M1,18h1M2,18h1M3,18h1M4,18h1M5,18h1M6,18h1M9,18h1M10,18h1M16,18h1M18,18h1M20,18h1M0,19h1M6,19h1M8,19h1M10,19h1M12,19h1M14,19h1M16,19h1M20,19h1M21,19h1M22,19h1M23,19h1M24,19h1M0,20h1M2,20h1M3,20h1M4,20h1M6,20h1M8,20h1M11,20h1M13,20h1M14,20h1M16,20h1M17,20h1M18,20h1M19,20h1M20,20h1M21,20h1M22,20h1M24,20h1M0,21h1M2,21h1M3,21h1M4,21h1M6,21h1M9,21h1M10,21h1M12,21h1M15,21h1M17,21h1M18,21h1M19,21h1M22,21h1M23,21h1M24,21h1M0,22h1M2,22h1M3,22h1M4,22h1M6,22h1M10,22h1M11,22h1M12,22h1M13,22h1M14,22h1M15,22h1M16,22h1M18,22h1M21,22h1M23,22h1M0,23h1M6,23h1M8,23h1M9,23h1M11,23h1M13,23h1M15,23h1M19,23h1M20,23h1M21,23h1M22,23h1M23,23h1M0,24h1M1,24h1M2,24h1M3,24h1M4,24h1M5,24h1M6,24h1M8,24h1M12,24h1M13,24h1M15,24h1M22,24h1M23,24h1M24,24h1"/>
	</g>
</svg>
